<?xml version="1.0" encoding="UTF-8"?><svg id="Layer_1" xmlns="http://www.w3.org/2000/svg" viewBox="0 0 494.49 415.74"><path d="M23.47,1.59h91.48v7.65H40.05v40.32h64.23v7.49H40.05v56.1h-16.58V1.59Z" fill="#fff" stroke="#fff" stroke-miterlimit="10"/><path d="M199.74,84.15h-64.23l-14.5,29.01h-11.16L167.87,0h8.61l54.67,113.16h-17.85l-13.55-29.01ZM196.08,76.5l-27.41-58.65-29.32,58.65h56.74Z" fill="#fff" stroke="#fff" stroke-miterlimit="10"/><path d="M255.2,99.77c-10.2-9.99-15.3-24.28-15.3-42.87s5.07-32.19,15.22-42.07c10.15-9.88,24.68-14.82,43.59-14.82,15.4,0,27.94,3.24,37.61,9.72,9.67,6.48,15.4,15.51,17.21,27.09h-14.34c-1.81-9.14-6.22-16.28-13.23-21.44-7.01-5.15-15.83-7.73-26.46-7.73-13.81,0-24.41,4.25-31.79,12.75-7.39,8.5-11.08,20.67-11.08,36.5s3.72,28.56,11.16,37.21c7.44,8.66,18.11,12.99,32.03,12.99,10.62,0,19.39-2.55,26.3-7.65,6.91-5.1,11.26-12.27,13.07-21.52h14.34c-1.81,11.58-7.54,20.61-17.21,27.09-9.67,6.48-22.1,9.72-37.29,9.72-19.02,0-33.63-4.99-43.83-14.98Z" fill="#fff" stroke="#fff" stroke-miterlimit="10"/><path d="M379.67,1.59h94.51v7.65h-77.93v40.32h68.85v7.49h-68.85v48.45h77.93v7.65h-94.51V1.59Z" fill="#fff" stroke="#fff" stroke-miterlimit="10"/><path d="M208.98,228.94c0-12.42,7.79-22.04,18.87-27.64-5.48-6.33-7.91-12.91-7.91-18.51-.12-12.42,10.72-20.58,28.86-20.58,6.33,0,12.79.73,19.12,2.19v4.26c-4.99-.85-10.23-1.34-15.34-1.34-14.25,0-19,5.48-19,13.52,0,6.58,2.56,10.84,7.67,17.29l24.11,28.01,12.91-24.23h5.72l-15.22,28.25,19.48,22.65h-16.07l-9.86-11.32c-5.84,8.28-14.61,12.54-25.21,12.54-16.07,0-28.13-8.52-28.13-25.08ZM259.03,237.59l-28.25-32.88c-6.7,4.38-10.23,10.59-10.23,21.07,0,13.39,7.67,21.92,19.24,21.92,8.52,0,14.49-3.04,19.24-10.11Z" fill="#fff" stroke="#fff" stroke-miterlimit="10"/><path d="M140.43,311.39v104.35h-15.5v-87.65l-40.55,87.65h-7.3l-43.53-88.85v88.85h-9.24v-104.35h17.74l41.59,85.87,39.8-85.87h16.99Z" fill="#fff" stroke="#fff" stroke-miterlimit="10"/><path d="M234.94,388.61h-60.08l-13.57,27.13h-10.44l54.26-105.84h8.05l51.13,105.84h-16.7l-12.67-27.13ZM231.51,381.46l-25.64-54.86-27.43,54.86h53.07Z" fill="#fff" stroke="#fff" stroke-miterlimit="10"/><path d="M274.59,311.39h15.65l63.5,80.95v-80.95h13.12v104.35h-7.75l-71.41-90.78v90.78h-13.12v-104.35Z" fill="#fff" stroke="#fff" stroke-miterlimit="10"/><path d="M386.84,311.39h88.4v7.16h-72.9v37.71h64.4v7.01h-64.4v45.32h72.9v7.16h-88.4v-104.35Z" fill="#fff" stroke="#fff" stroke-miterlimit="10"/><line y1="215.64" x2="178.12" y2="215.64" fill="#fff" stroke="#fff" stroke-miterlimit="10" stroke-width="3.45"/><line x1="316.36" y1="214.86" x2="494.49" y2="214.86" fill="#fff" stroke="#fff" stroke-miterlimit="10" stroke-width="3.45"/></svg>